<svg xmlns="http://www.w3.org/2000/svg" width="32" height="32" fill="none"><rect width="32" height="32" fill="#F0F415" rx="16"/><path fill="#000" d="m13.337 28.465-.13.895-.691-.1.35-2.38.69.102-.133.896 1.593.235.133-.896.688.101-.35 2.377-.688-.101.13-.896-1.592-.233zM10.24 27.22l-1.199.534-.778-.4 1.929-.814.374-.71.627.323-.365.709.462 2.044-.778-.4-.271-1.287zm-4.629-2.69a.97.97 0 0 1 .936-.92.99.99 0 0 1 .655.33l.834.85.442-.432.486.498-1.715 1.683-1.323-1.349a.974.974 0 0 1-.315-.66zm1.31-.039a1.426 1.426 0 0 0-.16-.142.238.238 0 0 0-.158-.043.385.385 0 0 0-.292.286.245.245 0 0 0 .041.159c.042.058.088.112.139.163l.7.714.43-.423-.7-.714zm-3.57-3.28.483-.252.827 1.586.34-.187-.802-1.53.482-.252.803 1.53.34-.188-.832-1.59.483-.252 1.156 2.205-2.13 1.122-1.15-2.192zM4.9 19.203a1.29 1.29 0 0 1-1.845.335 1.783 1.783 0 0 1-.533-1.081 2.165 2.165 0 0 1 0-.864c.047-.229.164-.437.333-.598A1.39 1.39 0 0 1 4.2 16.75c.216.09.4.245.524.443.155.247.258.523.302.811.099.402.054.826-.126 1.2zM3.62 17.41c-.442.08-.613.393-.513.935.099.544.374.778.81.697.436-.08.621-.394.522-.935-.1-.54-.372-.777-.82-.697zm-.73-4.402a.972.972 0 0 1 1.31.187c.138.213.188.47.14.718l-.162 1.182.612.082-.096.69-2.381-.325.256-1.87a.982.982 0 0 1 .322-.664zm.83 1.008c.011-.07.016-.142.015-.213a.258.258 0 0 0-.062-.152.292.292 0 0 0-.187-.086.298.298 0 0 0-.212.03.269.269 0 0 0-.099.13 1.23 1.23 0 0 0-.043.209l-.137.99.6.083.125-.991zm-.337-3.197 1.65.747.687-1.518.54.243-.972 2.154-2.193-.989.288-.637zm2.983-4.542.417.351-1.155 1.373.294.246 1.112-1.322.417.352-1.112 1.322.294.247L7.788 7.47l.419.352-1.604 1.905-1.841-1.544 1.604-1.907zm4.739-2.267v-.015c.017-.12.047-.136.163-.108l.625.127-.2-.604c-.034-.103-.015-.138.091-.172h.017c.107-.035.142-.019.176.084l.198.604.429-.473c.078-.088.116-.09.187-.01l.011.012c.079.077.08.114 0 .196l-.441.472.645.136c.105.023.127.052.107.165v.009c-.017.118-.047.136-.163.108l-.623-.125.198.602c.034.105.017.14-.091.176h-.015c-.109.036-.145.019-.188-.086l-.198-.602-.428.471c-.075.092-.11.094-.188 0-.084-.078-.086-.12-.01-.196l.435-.494-.636-.116c-.095-.017-.116-.05-.101-.16zm7.59-.467.132-.896.69.103-.357 2.377-.688-.103.135-.896-1.593-.237-.134.895-.69-.104.356-2.377.69.105-.134.894 1.593.239zm3.096 1.262 1.2-.53.778.403-1.933.808-.374.707-.625-.324.374-.707-.458-2.045.778.402.26 1.286zm4.626 2.696a.975.975 0 0 1-.936.917.979.979 0 0 1-.655-.331l-.832-.853-.442.43-.487-.5 1.724-1.682 1.31 1.352a.984.984 0 0 1 .318.667zm-1.31.034c.05.052.104.1.16.144a.25.25 0 0 0 .158.045.315.315 0 0 0 .187-.103.3.3 0 0 0 .105-.187.243.243 0 0 0-.041-.157 1.26 1.26 0 0 0-.139-.165l-.698-.714-.432.42.7.717zm3.566 3.287-.482.253-.83-1.591-.34.175.797 1.532-.483.252-.799-1.531-.34.177.829 1.592-.483.252-1.153-2.21 2.134-1.109 1.15 2.208zm-1.558 1.999a1.287 1.287 0 0 1 1.845-.329c.296.288.483.67.53 1.08.057.287.057.58 0 .867a1.147 1.147 0 0 1-.336.598c-.18.158-.402.261-.64.297-.235.05-.48.03-.705-.058a1.12 1.12 0 0 1-.524-.445 2.156 2.156 0 0 1-.3-.811 1.775 1.775 0 0 1 .13-1.199zm1.276 1.797c.441-.078.613-.39.514-.935-.097-.546-.374-.778-.808-.7-.434.08-.621.393-.524.936.097.542.367.785.814.705l.004-.006zm.711 4.415a.844.844 0 0 1-.683.163.854.854 0 0 1-.618-.344.977.977 0 0 1-.138-.72l.165-1.18-.61-.086.095-.688 2.382.33-.262 1.87a.97.97 0 0 1-.331.655zm-.825-1.01a1.21 1.21 0 0 0-.015.215c.002.056.023.11.06.152.05.049.116.08.187.086a.305.305 0 0 0 .211-.03.249.249 0 0 0 .1-.13 1.4 1.4 0 0 0 .044-.209l.139-.99-.597-.083-.13.99zm.335 3.188-1.65-.747-.69 1.516-.54-.245.977-2.152 2.19.995-.287.633zm-2.994 4.531-.417-.352 1.16-1.37-.294-.249-1.123 1.32-.417-.351 1.122-1.32-.293-.247-1.159 1.37-.417-.353 1.61-1.902 1.837 1.55-1.61 1.904zm-3.05 1.419v.015c0 .122-.027.142-.144.131l-.637-.035.285.56c.047.096.034.135-.068.188h-.015c-.1.052-.138.039-.187-.056l-.284-.561-.356.529c-.063.097-.1.104-.187.035h-.013c-.088-.065-.095-.103-.034-.187l.375-.529-.659-.043c-.106 0-.133-.034-.129-.148 0-.12.026-.144.144-.13l.636.033-.284-.56c-.049-.1-.036-.137.065-.188h.015c.101-.05.139-.04.187.06l.285.561.355-.53c.06-.1.096-.108.188-.035.093.066.102.107.04.187l-.36.55.645.022c.11-.01.135.02.137.131z"/><path fill="#000" fill-rule="evenodd" d="M16.037 22.237c5.649 0 7.994-6.237 7.994-6.237S21.7 9.763 16.037 9.763 8.042 16 8.042 16s2.345 6.237 7.995 6.237zm0-2.371A3.859 3.859 0 0 0 19.888 16a3.859 3.859 0 0 0-3.851-3.866A3.859 3.859 0 0 0 12.185 16a3.859 3.859 0 0 0 3.852 3.866zm-2.095-4.918 1.047-1.051 1.048 1.051 1.047-1.051 1.048 1.051L17.085 16l1.047 1.051-1.048 1.052-1.047-1.052-1.047 1.052-1.048-1.052L14.989 16l-1.047-1.052z" clip-rule="evenodd"/></svg>