<svg width="41" height="41" viewBox="0 0 41 41" fill="none" xmlns="http://www.w3.org/2000/svg">
<mask id="mask0_1624_5020" style="mask-type:luminance" maskUnits="userSpaceOnUse" x="0" y="3" width="41" height="36">
<path d="M40.1013 3H0V38.4595H40.1013V3Z" fill="white"/>
</mask>
<g mask="url(#mask0_1624_5020)">
<path d="M38.7152 5.07389C37.6683 3.75549 36.1419 3 34.5276 3H14.4223C13.7108 3 13.009 3.1432 12.3448 3.41396C12.2347 3.4477 12.1253 3.49544 12.0175 3.55798C11.6983 3.71187 11.3902 3.89622 11.0947 4.10937L4.36631 8.13947C2.93153 8.99863 1.9563 10.5878 1.75756 12.3893L0.0361256 28.0184C-0.203989 30.196 0.728393 32.3406 2.41067 33.4822L8.23399 37.4316C8.35737 37.5221 8.48445 37.606 8.61448 37.685C8.61522 37.685 8.61595 37.6859 8.61669 37.6867C9.43604 38.1862 10.3699 38.4595 11.3363 38.4595H31.4416C32.9355 38.4595 34.3894 37.8356 35.5339 36.7024C36.6768 35.5716 37.4068 34.0368 37.5892 32.3826L40.0576 9.98707C40.2556 8.18885 39.7665 6.39724 38.7152 5.07389Z" fill="#FDCE63"/>
<path d="M37.4608 6.31077C36.7316 5.39316 35.6626 4.86646 34.5278 4.86646H14.4232C13.5241 4.86646 12.6692 5.18084 11.9496 5.7174L9.813 6.99714C9.6608 7.08849 9.5581 7.25637 9.53668 7.44731L8.68926 15.1388C8.66045 15.3989 8.38561 15.556 8.20386 15.4162L7.27148 14.696C7.18208 14.6269 7.05796 14.6269 6.95305 14.696L5.86182 15.4162C5.64979 15.556 5.40893 15.3989 5.43775 15.1388L6.05835 9.50554C6.07091 9.38874 5.96083 9.30475 5.86774 9.35993L5.15995 9.78367C4.20171 10.3573 3.55304 11.414 3.42079 12.6164L1.69936 28.2455C1.53903 29.7005 2.15816 31.1251 3.28263 31.888L9.13772 35.8597C9.77458 36.3321 10.5392 36.5929 11.3364 36.5929H31.4417C33.6818 36.5929 35.6522 34.6433 35.9263 32.1546L38.3947 9.75907C38.5343 8.49083 38.1944 7.23415 37.4608 6.31077Z" fill="#2D1611"/>
<path d="M31.4417 34.7262H11.3371C9.95477 34.7262 8.96255 33.4662 9.13247 31.9264L11.6009 9.53084C11.7708 7.99105 13.0401 6.73108 14.4224 6.73108H34.5277C35.91 6.73108 36.9022 7.99105 36.7323 9.53084L34.2639 31.9264C34.094 33.4662 32.824 34.7262 31.4417 34.7262Z" fill="white"/>
<path d="M24.7625 19.1645C24.0805 25.3492 21.6528 30.3619 19.3396 30.3619C17.0264 30.3619 15.7039 25.3484 16.3851 19.1645C17.067 12.9799 19.4947 7.96716 21.808 7.96716C24.1212 7.96716 25.4436 12.9807 24.7625 19.1645Z" fill="#2D1611"/>
<path d="M22.8604 21.7148C22.5878 24.1887 21.6162 26.1943 20.6912 26.1943C19.7662 26.1943 19.2365 24.1887 19.5099 21.7148C19.7825 19.2409 20.754 17.2354 21.679 17.2354C22.604 17.2354 23.1337 19.2409 22.8604 21.7148Z" fill="white"/>
<path d="M34.2222 19.1645C33.5403 25.3492 31.1125 30.3619 28.7993 30.3619C26.4861 30.3619 25.1636 25.3484 25.8448 19.1645C26.5267 12.9799 28.9545 7.96716 31.2677 7.96716C33.5809 7.96716 34.9034 12.9807 34.2222 19.1645Z" fill="#2D1611"/>
<path d="M32.3185 21.7148C32.0459 24.1887 31.0743 26.1943 30.1493 26.1943C29.2243 26.1943 28.6946 24.1887 28.968 21.7148C29.2406 19.2409 30.2121 17.2354 31.1371 17.2354C32.0621 17.2354 32.5918 19.2409 32.3185 21.7148Z" fill="white"/>
<path d="M28.0782 15.2458C28.0228 15.2458 27.9659 15.2367 27.9097 15.2186C27.5965 15.1149 27.4184 14.7487 27.5115 14.4006C27.6984 13.6985 27.9378 13.0081 28.2223 12.3481C28.5185 11.6609 28.8687 10.9967 29.2632 10.3738C29.4516 10.0767 29.8203 10.0059 30.087 10.215C30.3537 10.4248 30.4173 10.8354 30.2296 11.1326C29.8728 11.6963 29.5558 12.2971 29.2876 12.9184C29.0298 13.515 28.814 14.1397 28.6449 14.775C28.5688 15.0614 28.3331 15.2458 28.0782 15.2458Z" fill="white"/>
<path d="M27.6619 16.9977C27.9883 16.9977 28.2529 16.7029 28.2529 16.3393C28.2529 15.9757 27.9883 15.6809 27.6619 15.6809C27.3355 15.6809 27.0708 15.9757 27.0708 16.3393C27.0708 16.7029 27.3355 16.9977 27.6619 16.9977Z" fill="white"/>
<path d="M18.6195 15.2458C18.5641 15.2458 18.5072 15.2367 18.451 15.2186C18.1378 15.1149 17.9597 14.7487 18.0528 14.4006C18.2397 13.6985 18.4791 13.0081 18.7635 12.3481C19.0598 11.6609 19.4107 10.9967 19.8053 10.3738C19.9937 10.0767 20.3623 10.0059 20.629 10.215C20.8958 10.4248 20.9593 10.8354 20.7716 11.1326C20.4148 11.6963 20.0978 12.2971 19.8296 12.9184C19.5718 13.515 19.3561 14.1397 19.1869 14.775C19.1108 15.0614 18.8744 15.2458 18.6195 15.2458Z" fill="white"/>
<path d="M18.2029 16.9977C18.5293 16.9977 18.7939 16.7029 18.7939 16.3393C18.7939 15.9757 18.5293 15.6809 18.2029 15.6809C17.8764 15.6809 17.6118 15.9757 17.6118 16.3393C17.6118 16.7029 17.8764 16.9977 18.2029 16.9977Z" fill="white"/>
</g>
</svg>
